<svg width="278" height="208" viewBox="0 0 278 208" fill="none" xmlns="http://www.w3.org/2000/svg">
<g style="mix-blend-mode:multiply" opacity="0.3">
<path d="M278 203C278 205.585 200.753 207.685 123.986 207.685C47.218 207.685 0 205.588 0 203C0 200.411 47.218 198.314 123.986 198.314C200.753 198.314 278 200.411 278 203Z" fill="#434190"/>
</g>
<path d="M126.607 81.3376L128.631 81.566C128.993 81.604 138.371 80.3654 138.892 80.3947C139.413 80.424 144.459 81.6802 144.82 81.9525C145.182 82.2248 148.942 86.7108 148.942 86.7108C148.942 86.7108 148.942 87.724 147.902 87.4516C146.863 87.1793 147.221 87.762 146.779 87.8411C146.336 87.9202 142.453 85.5835 142.453 85.5835L139.603 84.9597L138.844 85.5454L144.29 88.5439C144.29 88.5439 144.531 89.2056 143.85 89.3228C143.17 89.4399 137.467 87.1032 137.467 87.1032C137.467 87.1032 133.234 87.3374 132.273 87.3374C131.312 87.3374 128.77 86.5966 128.77 86.5966L126.095 87.2203L126.607 81.3376Z" fill="#E2857E"/>
<path d="M75.0145 6.20113C80.0935 4.95373 87.4109 8.44996 88.5707 14.2302C89.7305 20.0104 90.803 30.095 87.0373 31.3775C85.3684 31.9456 78.9819 31.3775 78.9819 31.3775L80.3255 38.2733H68.6189L70.5349 28.3966C70.5349 28.3966 58.265 10.3152 75.0145 6.20113Z" fill="#E2857E"/>
<path d="M86.9922 10.7662C86.9922 10.7662 81.6089 11.8379 80.4671 14.7017C79.3254 17.5654 79.946 23.3339 77.1534 18.2652C75.7917 15.788 73.7342 16.441 72.6527 18.4468C71.3212 20.9152 74.3276 23.0235 74.0415 23.8551C73.7553 24.6867 71.1946 28.303 70.5289 28.3967C69.8631 28.4904 63.1302 18.031 66.1939 11.1644C69.0769 4.72247 84.7479 2.54098 86.9922 10.7662Z" fill="#1D273F"/>
<path d="M86.9923 10.766C86.9923 10.766 92.2822 5.8468 91.1375 4.30076C90.4356 3.35206 87.2393 6.27429 86.4621 5.38122C85.8325 4.66384 88.5558 2.65224 87.9683 1.9085C84.8534 -1.97709 69.1884 4.64627 68.7696 8.21855C68.3509 11.7908 86.9923 10.766 86.9923 10.766Z" fill="#1D273F"/>
<path d="M112.189 132.979C114.481 137.131 113.602 142.641 122.35 156.623C126.724 163.61 130.698 169.323 134.701 174.801L146.836 170.409C141.735 157.232 128.929 126.171 126.79 120.838C123.757 113.266 85.1787 118.733 85.1787 118.733C85.1787 118.733 71.2609 109.949 61.6812 116.168C59.0031 117.899 109.896 128.826 112.189 132.979Z" fill="#EBECED"/>
<path d="M54.7764 126.528C55.87 144.097 101.772 133.555 103.341 138C104.911 142.445 102.498 144.106 105.191 157.929C106.757 165.964 112.195 176.76 115.237 182.792L127.941 180.336C125.079 166.535 120.265 133.058 119.033 127.459C117.286 119.518 79.6537 117.278 79.6537 117.278C79.6537 117.278 67.6037 106.253 57.1171 110.897C54.1799 112.198 54.6107 123.863 54.7764 126.528Z" fill="#F2F2F2"/>
<path d="M145.679 174.38L144.326 171.311L135.674 174.45L137.66 178.359L141.043 185.018L146.833 186.657L148.191 180.09L145.679 174.38Z" fill="#E2857E"/>
<path d="M125.537 180.804L116.509 182.547L117.178 186.019L118.636 192.695L123.555 194.704L126.857 190.909L125.995 184.262L125.537 180.804Z" fill="#E2857E"/>
<path d="M82.63 36.4783L46.5162 27.8754C46.5162 27.8754 39.1808 50.1118 57.3612 51.1542C75.5416 52.1966 82.63 36.4783 82.63 36.4783Z" fill="#9E9EE6"/>
<path d="M72.7639 35.3625C67.5673 35.6846 62.7834 40.9553 59.4275 50.4806C54.6497 63.6105 47.6517 80.4152 50.8359 125.872L96.9271 117.55C92.556 95.2961 93.6435 44.0533 84.356 37.0901C81.0181 35.7315 77.1802 35.099 72.7639 35.3625Z" fill="#9E9EE6"/>
<path d="M117.859 190.959C117.313 191.102 115.816 200.499 116.699 200.991C117.581 201.483 142.269 201.904 143.706 200.54C144.459 199.825 143.664 196.657 143.146 196.514C137.289 194.882 131.739 192.353 126.703 189.021C126.703 189.021 124.26 189.867 124.543 191.135L124.845 191.671C124.845 191.671 123.305 193.061 121.817 192.924C120.329 192.786 119.247 190.584 117.859 190.959Z" fill="white"/>
<path d="M140.476 184.239C140.021 184.567 142.139 193.852 143.142 193.998C144.145 194.145 167.311 185.82 168.146 184.043C168.579 183.112 166.639 180.438 166.118 180.491C160.053 181.039 153.937 180.644 148.001 179.32C148.001 179.32 146.04 180.968 146.778 182.052L147.248 182.447C147.248 182.447 146.344 184.289 144.895 184.684C143.446 185.079 141.633 183.41 140.476 184.239Z" fill="#EBECED"/>
<path d="M118.47 102.18C118.042 99.091 119.802 77.0332 119.802 77.0332L110.683 87.0768C110.683 87.0768 112.49 100.734 113.207 102.409C117.648 112.97 120.383 121.392 123.844 119.392C124.387 118.812 118.759 104.268 118.47 102.18Z" fill="#26334C"/>
<path d="M120.925 101.882C120.66 98.7748 123.585 76.8342 123.585 76.8342L113.945 86.4063C113.945 86.4063 115.042 100.136 115.656 101.846C119.534 112.616 121.82 121.172 125.378 119.342C125.962 118.786 121.109 103.978 120.925 101.882Z" fill="#2A3756"/>
<path d="M126.098 30.9295C126.098 30.9295 131.18 24.306 132.005 24.4612C132.831 24.6164 130.472 36.5837 130.472 36.5837L126.025 36.9644L126.098 30.9295Z" fill="#26334C"/>
<path d="M78.0178 101.636C78.0178 101.636 84.6845 119.225 93.5805 122.332C98.9276 124.203 108.36 123.769 111.532 121.629C108.04 125.825 98.0028 127.582 91.2126 124.818C81.901 121.023 76.9424 113.281 76.9424 113.281L78.0178 101.636Z" fill="#2A3756"/>
<path d="M79.8163 91.4515C84.5459 78.4242 95.3879 70.7582 96.7677 69.0336C97.9275 67.5841 103.696 62.208 105.504 60.5419C106.338 59.3209 117.702 42.6802 119.717 36.9761C119.717 36.9761 119.256 33.4067 121.485 29.2341C123.715 25.0615 124.636 23.1904 124.636 23.1904C125.612 23.164 128.483 33.6937 128.483 33.6937C128.483 33.6937 136.219 36.329 137.461 37.7374C139.955 40.566 145.106 45.6815 148.306 46.2847C147.908 47.1632 147.236 48.8908 147.959 49.2539C148.586 49.5701 149.842 49.7224 150.67 49.7956C150.173 51.6989 148.324 52.2406 145.112 52.2406C143.061 52.2406 140.714 50.431 136.027 50.5159C132.818 50.5745 130.381 50.6887 127.95 49.6785C126.384 52.5568 125.953 62.3984 126.387 68.3484C126.498 69.3732 126.835 72.1872 126.89 72.5913C127.992 80.7901 117.629 86.0022 117.25 86.8631C116.948 87.5044 105.501 93.7911 101.148 97.3693C99.6416 98.6108 107.329 98.6401 109.224 102.192C111.936 107.287 104.239 113.779 104.239 113.779C104.239 113.779 117.316 115.916 119.301 116.707C120.205 117.073 122.868 119.635 117.409 119.635H85.9256C82.7535 119.635 76.4634 114.847 75.2825 112.93C74.1016 111.012 75.0836 104.479 79.8163 91.4515Z" fill="#2A3756"/>
<path d="M148.285 46.2729C147.887 47.1514 147.215 48.8791 147.938 49.2422C148.565 49.5585 149.821 49.7107 150.65 49.7839C150.718 49.5327 150.769 49.2774 150.803 49.0197C150.966 47.6902 149.734 46.8674 148.285 46.2729Z" fill="#151C28"/>
<path d="M131.963 42.7474C132.538 43.4033 134.644 44.5043 135.656 44.1968C136.668 43.8894 137.256 42.9202 136.97 42.0418C136.683 41.1634 135.629 40.7008 134.617 41.0111C133.605 41.3215 131.963 42.7474 131.963 42.7474Z" fill="#151C28"/>
<path d="M128.472 33.6819L123.673 35.4125C123.673 35.4125 122.883 29.0437 125.73 25.035C126.649 26.1477 128.472 33.6819 128.472 33.6819Z" fill="#212E42"/>
<path d="M126.2 63.8859L126.224 61.3413C123.897 61.3515 121.575 61.1277 119.295 60.6736C114.855 59.7659 111.333 58.0383 108.773 55.5405L107.399 57.722C110.291 60.375 114.165 62.2285 118.846 63.1772C121.267 63.65 123.731 63.8873 126.2 63.8859Z" fill="#FBF84A"/>
<path d="M87.0012 52.2581L95.7375 81.2469L128.233 80.9306L127.631 88.2335C127.631 88.2335 108.761 94.5788 92.2219 94.5407C81.8649 94.5232 72.6255 91.7795 68.8719 90.3974C66.7813 89.0797 84.6424 48.6155 87.0012 52.2581Z" fill="#9E9EE6"/>
<path d="M63.4884 141.016H59.6445V190.35H63.4884V141.016Z" fill="#F2F2F2"/>
<path d="M61.2289 190.35V186.737L31.8027 194.684L32.9174 195.94L61.2289 190.35Z" fill="#F2F2F2"/>
<path d="M61.9341 190.35V186.737L91.3602 194.684L89.9895 195.94L61.9341 190.35Z" fill="#F2F2F2"/>
<path d="M40.5001 141.016L16.8761 64.0878L12.4146 64.1668L32.2519 145.3L40.5001 141.016Z" fill="#D55291"/>
<path d="M98.9066 136.733H32.252V145.3H98.9066V136.733Z" fill="#D55291"/>
<path d="M65.0217 145.3H57.8882V158.404H65.0217V145.3Z" fill="#2A3756"/>
<path d="M36.7074 198.151C36.7074 198.879 36.4851 199.591 36.0687 200.197C35.6523 200.803 35.0604 201.275 34.3679 201.554C33.6754 201.833 32.9135 201.906 32.1783 201.763C31.4432 201.621 30.7679 201.27 30.2379 200.755C29.7079 200.24 29.347 199.584 29.2007 198.869C29.0545 198.155 29.1296 197.414 29.4164 196.741C29.7032 196.068 30.189 195.492 30.8122 195.088C31.4354 194.683 32.1681 194.467 32.9177 194.467C33.9228 194.467 34.8867 194.855 35.5974 195.546C36.3081 196.237 36.7074 197.174 36.7074 198.151Z" fill="#2A3756"/>
<path d="M93.7792 198.151C93.7792 198.879 93.5569 199.591 93.1405 200.197C92.7241 200.803 92.1322 201.275 91.4397 201.554C90.7472 201.833 89.9852 201.906 89.2501 201.763C88.515 201.621 87.8397 201.27 87.3097 200.755C86.7797 200.24 86.4188 199.584 86.2725 198.869C86.1263 198.155 86.2014 197.414 86.4882 196.741C86.775 196.068 87.2608 195.492 87.884 195.088C88.5072 194.683 89.2399 194.467 89.9894 194.467C90.4871 194.467 90.9799 194.562 91.4397 194.747C91.8995 194.932 92.3173 195.204 92.6692 195.546C93.0211 195.888 93.3003 196.294 93.4907 196.741C93.6812 197.188 93.7792 197.667 93.7792 198.151Z" fill="#2A3756"/>
<path d="M267.055 89.5569H125.296V94.0927H267.055V89.5569Z" fill="#2A3756"/>
<path d="M172.27 89.557H159.039L179.491 61.1714H192.724L172.27 89.557Z" fill="#E1E1E1"/>
<path d="M166.841 89.557H129.682V88.0988L168.037 87.3872L166.841 89.557Z" fill="#E1E1E1"/>
<path d="M264.552 203.357H260.835L243.443 91.8234H250.64L264.552 203.357Z" fill="#2A3756"/>
<path d="M127.796 203.357H131.513L148.905 91.8234H141.711L127.796 203.357Z" fill="#2A3756"/>
</svg>
